<svg width="22" height="20" viewBox="0 0 22 20" fill="none" xmlns="http://www.w3.org/2000/svg">
<path d="M8.44685 0.821335L8.48692 0.834855L8.50463 0.85154L8.61297 0.886068C8.8318 0.955808 9.02043 1.02873 9.19382 1.12333L9.21178 1.13313L9.23047 1.14143L9.61551 1.3123C9.66095 1.33775 9.72012 1.37766 9.79403 1.43042C9.80615 1.43908 9.81966 1.44882 9.83411 1.45924C9.89541 1.50347 9.97354 1.55984 10.0339 1.59639L10.0339 1.59643L10.0402 1.60013C10.0626 1.61324 10.0835 1.62539 10.1031 1.63677C10.1931 1.68904 10.2556 1.72534 10.3084 1.76553L10.6106 1.99535L10.9132 1.76601C12.0059 0.937655 13.3303 0.49046 14.6929 0.500028V0.500041H14.6964C15.3197 0.500041 15.9341 0.587454 16.5121 0.779874L16.5121 0.779895L16.5166 0.781331C20.0954 1.93555 21.4617 5.85742 20.3446 9.39974C19.7011 11.2291 18.6508 12.8983 17.2769 14.2622C15.2549 16.2042 13.0361 17.9285 10.6477 19.4142L10.6462 19.4151L10.6291 19.4046C8.232 17.9294 6.00009 16.205 3.95841 14.2519C2.59281 12.887 1.54126 11.2272 0.887436 9.39738C-0.247397 5.85933 1.11522 1.9355 4.73946 0.75893L4.73948 0.758988L4.7469 0.75645C5.01284 0.665482 5.28673 0.600837 5.56141 0.563366H5.65574H5.69174L5.72736 0.558209C6.00072 0.518643 6.2728 0.500041 6.54707 0.500041H6.65611C7.27322 0.519365 7.86924 0.626462 8.44685 0.821335ZM16.2945 2.85854L16.2871 2.85578L16.2797 2.85325C15.58 2.61453 14.8254 2.99101 14.5761 3.68341L14.576 3.68337L14.5726 3.69351C14.3377 4.39262 14.7054 5.15626 15.4063 5.40584C15.8843 5.58494 16.2125 6.05809 16.2125 6.58852V6.60248C16.1881 6.9635 16.3003 7.3172 16.5294 7.59315C16.7744 7.88823 17.1265 8.04411 17.4718 8.0768L17.502 8.07966L17.5323 8.07885C18.2209 8.06053 18.8054 7.51691 18.8559 6.81382L18.8572 6.79593V6.77799V6.65795C18.8912 4.97487 17.8626 3.44895 16.2945 2.85854Z" stroke="#292D32"/>
</svg>
