<svg width="16" height="16" viewBox="0 0 16 16" fill="none" xmlns="http://www.w3.org/2000/svg">
<path d="M15.5483 0.465586C15.1481 0.0548785 14.5559 -0.0981303 14.0037 0.0629316L1.1264 3.80762C0.543759 3.96949 0.13079 4.43415 0.0195441 5.02444C-0.0941024 5.6252 0.30286 6.38783 0.821472 6.70673L4.84792 9.18145C5.26089 9.43512 5.79391 9.3715 6.13565 9.02683L10.7463 4.38744C10.9784 4.14585 11.3626 4.14585 11.5947 4.38744C11.8268 4.62098 11.8268 4.99948 11.5947 5.24107L6.97599 9.88126C6.63345 10.2251 6.56943 10.7607 6.82153 11.1762L9.28174 15.243C9.56985 15.7262 10.0661 16 10.6103 16C10.6743 16 10.7463 16 10.8104 15.9919C11.4346 15.9114 11.9308 15.4846 12.1149 14.8806L15.9325 2.01983C16.1005 1.47222 15.9485 0.876294 15.5483 0.465586Z" fill="white"/>
</svg>

<svg width="24" height="24" viewBox="0 0 24 24" fill="none" xmlns="http://www.w3.org/2000/svg">
<path d="M21.25 9.14969C18.94 5.51969 15.56 3.42969 12 3.42969C10.22 3.42969 8.49 3.94969 6.91 4.91969C5.33 5.89969 3.91 7.32969 2.75 9.14969C1.75 10.7197 1.75 13.2697 2.75 14.8397C5.06 18.4797 8.44 20.5597 12 20.5597C13.78 20.5597 15.51 20.0397 17.09 19.0697C18.67 18.0897 20.09 16.6597 21.25 14.8397C22.25 13.2797 22.25 10.7197 21.25 9.14969ZM12 16.0397C9.76 16.0397 7.96 14.2297 7.96 11.9997C7.96 9.76969 9.76 7.95969 12 7.95969C14.24 7.95969 16.04 9.76969 16.04 11.9997C16.04 14.2297 14.24 16.0397 12 16.0397Z" fill="#292D32"/>
<path d="M11.9984 9.14062C10.4284 9.14062 9.14844 10.4206 9.14844 12.0006C9.14844 13.5706 10.4284 14.8506 11.9984 14.8506C13.5684 14.8506 14.8584 13.5706 14.8584 12.0006C14.8584 10.4306 13.5684 9.14062 11.9984 9.14062Z" fill="#292D32"/>
</svg>
